HIERARCHY
ROOT Hips
{
  OFFSET 196.326 95.9168 97.7182
  CHANNELS 6 Xposition Yposition Zposition Zrotation Xrotation Yrotation
  JOINT LeftUpLeg
  {
    OFFSET 8.64259 1.95398 -2.38835
    CHANNELS 3 Zrotation Xrotation Yrotation
    JOINT LeftLeg
    {
      OFFSET 43.7702 0 0
      CHANNELS 3 Zrotation Xrotation Yrotation
      JOINT LeftFoot
      {
        OFFSET 40.6238 0 0
        CHANNELS 3 Zrotation Xrotation Yrotation
        JOINT LeftToeBase
        {
          OFFSET 12.7242 0 0
          CHANNELS 3 Zrotation Xrotation Yrotation
          End Site
          {
            OFFSET 0 0 0
          }
        }
      }
    }
  }
  JOINT RightUpLeg
  {
    OFFSET -8.2249 1.95398 -2.59336
    CHANNELS 3 Zrotation Xrotation Yrotation
    JOINT RightLeg
    {
      OFFSET 43.5653 0 0
      CHANNELS 3 Zrotation Xrotation Yrotation
      JOINT RightFoot
      {
        OFFSET 40.6238 0 0
        CHANNELS 3 Zrotation Xrotation Yrotation
        JOINT RightToeBase
        {
          OFFSET 12.7242 0 0
          CHANNELS 3 Zrotation Xrotation Yrotation
          End Site
          {
            OFFSET 0 0 0
          }
        }
      }
    }
  }
  JOINT Spine
  {
    OFFSET 0.165834 0.87714 6.61349
    CHANNELS 3 Zrotation Xrotation Yrotation
    JOINT Spine1
    {
      OFFSET 7.38963 1.71661e-005 0
      CHANNELS 3 Zrotation Xrotation Yrotation
      JOINT Spine2
      {
        OFFSET 11.9445 1.14441e-005 0
        CHANNELS 3 Zrotation Xrotation Yrotation
        JOINT Spine3
        {
          OFFSET 14.7254 4.19617e-005 0
          CHANNELS 3 Zrotation Xrotation Yrotation
          JOINT Spine4
          {
            OFFSET 10.9679 0 0
            CHANNELS 3 Zrotation Xrotation Yrotation
            JOINT RightShoulder
            {
              OFFSET 2.46616 -1.6653 3.69651
              CHANNELS 3 Zrotation Xrotation Yrotation
              JOINT RightArm
              {
                OFFSET 13.0012 0 0
                CHANNELS 3 Zrotation Xrotation Yrotation
                JOINT RightForeArm
                {
                  OFFSET 28.7848 1.52588e-005 0
                  CHANNELS 3 Zrotation Xrotation Yrotation
                  JOINT RightHand
                  {
                    OFFSET 26.5688 1.52588e-005 0
                    CHANNELS 3 Zrotation Xrotation Yrotation
                    End Site
                    {
                      OFFSET 0 0 0
                    }
                  }
                }
              }
            }
            JOINT LeftShoulder
            {
              OFFSET 2.38034 -1.29275 -3.75231
              CHANNELS 3 Zrotation Xrotation Yrotation
              JOINT LeftArm
              {
                OFFSET 16.3182 6.10351e-005 0
                CHANNELS 3 Zrotation Xrotation Yrotation
                JOINT LeftForeArm
                {
                  OFFSET 27.0901 0 0
                  CHANNELS 3 Zrotation Xrotation Yrotation
                  JOINT LeftHand
                  {
                    OFFSET 24.5451 1.52588e-005 0
                    CHANNELS 3 Zrotation Xrotation Yrotation
                    End Site
                    {
                      OFFSET 0 0 0
                    }
                  }
                }
              }
            }
            JOINT Neck
            {
              OFFSET 5.0226 -0.0266342 0
              CHANNELS 3 Zrotation Xrotation Yrotation
              JOINT Head
              {
                OFFSET 6.69363 2.86102e-005 0
                CHANNELS 3 Zrotation Xrotation Yrotation
                End Site
                {
                  OFFSET 0 0 0
                }
              }
            }
          }
        }
      }
    }
  }
}
MOTION
Frames:	17
Frame Time:	0.0416667
-86.1875 102.766 -132.229 90.71 -36.9384 96.5653 -174.854 4.53998 93.2777 -18.5366 25.7768 0.918963 36.3093 -11.6797 2.56761 26.8151 0.201132 -20.1414 156.072 56.7859 110.981 -97.9571 8.09895 -3.56762 47.1849 -0.222233 0.205748 36.9857 0.669274 17.9337 -0.923887 7.69789 -90.3912 11.4721 -2.02083 -0.572005 -0.197403 -2.04406 -0.482475 -22.7415 -1.75548 -1.15304 -2.72885 -1.7555 -1.15306 78.898 -53.3845 -116.154 29.6648 -5.78747 33.8584 -4.29995 -18.2746 -26.4674 3.01949 0.0737258 5.83992 -99.0303 -38.8161 60.9745 -25.9965 0.330434 -2.13436 2.52459 -3.08161 -60.6457 20.4097 1.52732 3.61307 5.16023 3.00791 -3.1591 4.18157 3.96171 4.45238 
-79.2966 107.251 -126.163 91.6658 -34.3308 95.7714 -174.085 -0.729806 92.1853 -8.02171 31.312 0.0200873 27.5807 -16.7186 -1.27473 18.9063 -5.09445 -24.0303 156.733 59.1785 111.399 -94.4227 6.92891 -2.85966 52.7388 -0.845717 -0.345364 36.9057 0.64419 16.619 -1.20772 7.67355 -90.2256 11.527 -2.5082 -0.19226 -0.141544 -2.51419 -0.0816224 -22.694 -2.33438 -0.937592 -2.68137 -2.33438 -0.937588 79.9685 -51.4645 -115.362 33.6143 -0.409934 41.0998 -4.05379 -9.71387 -26.7984 0.726825 -0.0587151 3.23779 -95.6854 -36.2422 65.442 -23.7601 0.362743 -5.51578 5.53488 -2.23737 -74.5826 20.9056 1.51394 3.40796 3.94058 2.83089 -5.02143 4.31229 4.20751 5.59202 
-71.6111 109.47 -119.86 91.9145 -34.1406 94.6627 -173.676 2.19114 90.6155 -8.07567 26.8802 -0.851481 37.043 -12.761 -0.271983 28.5551 0.928243 -11.1383 164.562 57.5145 106.879 -86.4158 3.19641 -2.08196 58.0575 -1.46793 -0.823595 34.6744 0.229025 10.3882 -1.18688 7.61751 -90.1334 11.6409 -2.42331 -0.013973 -0.0277579 -2.42159 0.0927502 -22.5798 -2.30703 -0.742031 -2.56713 -2.30702 -0.742027 81.7828 -48.5968 -113.775 37.3824 1.87059 44.5223 -4.0933 -8.05087 -25.6533 0.110468 -0.0867344 2.35061 -94.7321 -35.5218 66.7887 -21.1937 -3.98081 -7.15705 7.49666 -0.692204 -88.6721 18.2739 1.61307 4.94609 5.20857 2.54871 -5.0148 3.49564 4.01991 6.50554 
-63.6572 108.434 -113.329 90.7114 -32.372 92.7791 -173.001 5.48766 89.2527 -7.09291 15.9252 -1.86572 42.1515 -10.1537 0.910127 39.0893 10.8839 -7.06718 169.288 54.0008 102.367 -74.0197 5.32825 -0.195916 58.2781 -1.22246 -0.629337 42.5981 1.5001 10.9816 -1.36287 7.44372 -90.0518 11.992 -2.73408 0.1937 0.323843 -2.72288 0.313924 -22.2336 -2.66581 -0.637566 -2.22097 -2.66581 -0.637572 82.2766 -47.6048 -113.403 38.1459 1.51948 46.0848 -5.20152 -10.4795 -25.5022 2.33403 0.0367608 3.25048 -94.5835 -35.6457 67.0952 -18.6403 -8.10118 -8.675 7.15083 -4.58057 -100.817 22.5132 2.27946 6.33982 6.92089 2.24274 -5.43406 1.43666 3.77963 6.86149 
-55.9705 103.324 -107.233 92.6173 -31.9072 93.2427 -172.291 3.34037 88.769 -6.10486 12.4934 -2.54499 39.5024 -10.6157 1.61743 50.5173 21.6225 -7.8528 173.794 48.1788 98.9407 -59.6586 7.69844 1.50899 62.8382 -1.90273 -1.04497 47.4916 2.48166 12.8901 -1.31822 7.53451 -90.0172 11.8106 -2.62963 0.245298 0.142235 -2.61627 0.360866 -22.4137 -2.58169 -0.556898 -2.40105 -2.5817 -0.556899 81.7859 -48.5692 -113.781 35.8196 0.725225 47.3911 -5.51161 -11.9453 -26.4892 4.13953 0.165374 4.21413 -94.7754 -35.6973 66.7838 -17.4477 -11.656 -10.6669 6.37449 -3.11288 -111.1 26.3354 3.55783 9.78201 6.90919 1.96907 -4.7495 1.72477 3.3244 5.98358 
-48.6412 95.7605 -101.184 94.4035 -31.0632 94.2023 -172.397 7.00612 87.8858 -30.582 17.1924 -1.44835 57.0357 6.57656 18.0752 66.3006 26.1397 -32.2609 178.912 43.6984 96.1262 -43.8717 9.78805 1.02334 66.6622 -2.50053 -1.35948 48.8903 2.72411 12.8948 -1.26337 7.66421 -90.0222 11.5504 -2.52367 0.215219 -0.118172 -2.51178 0.326147 -22.6724 -2.47161 -0.553678 -2.65978 -2.47161 -0.553681 79.7015 -52.0778 -115.511 30.7545 -0.055913 47.0618 -4.95123 -11.3829 -25.8198 1.98354 0.0266838 4.30563 -95.6922 -36.0905 65.3679 -18.1796 -13.2665 -11.6208 6.34152 -3.09137 -118.963 29.9587 4.22292 10.4337 8.00664 1.27605 -4.46861 2.12058 2.58368 5.13054 
-40.1526 89.8709 -94.4496 92.9261 -30.6894 90.4636 -172.345 1.81357 84.6363 -36.327 13.3198 -1.18372 65.9591 22.4928 30.854 65.7836 29.2303 -23.2076 -176.437 41.515 91.0885 -28.6755 11.4278 -1.67163 70.0804 -3.02341 -1.5759 49.4585 3.79142 20.7907 -1.16469 7.55275 -89.677 11.7771 -2.1644 0.872199 0.107557 -2.12391 0.966641 -22.4418 -2.32642 0.181063 -2.42912 -2.32643 0.181059 80.2596 -55.7433 -113.354 26.8934 -1.05127 38.1718 -3.66568 -13.5516 -21.9777 -6.071 -0.753667 8.66416 -98.6502 -39.2516 61.7824 -17.9363 -7.65096 -10.0357 10.4156 -5.63766 -119 28.8197 3.56139 8.65179 12.5826 -0.378849 -6.60215 -0.775318 1.54659 5.37359 
-29.7939 88.1464 -86.4088 91.6988 -31.1707 88.5855 -171.076 -4.39184 86.1888 -37.7521 18.9629 -1.72276 62.0865 15.9906 27.7979 71.86 37.2787 -15.8086 -175.625 38.5756 89.3786 -23.7123 7.13426 -2.69627 71.3301 -2.69835 -1.36272 52.5106 4.11388 17.8396 -1.10306 7.28153 -89.7233 12.3152 -2.06103 0.782465 0.645582 -2.02459 0.872441 -21.9023 -2.20084 0.126593 -1.88962 -2.20087 0.126586 81.5539 -56.1341 -111.416 25.8355 -1.22567 27.6135 -2.64499 -11.0549 -23.0445 -9.05178 -1.08151 8.53742 -101.091 -41.3245 58.8108 -24.5601 -0.411091 -1.78025 14.1636 -12.3945 -98.9225 24.9615 2.64036 6.83748 13.5416 -0.812527 -4.96153 -2.42473 0.662063 4.66951 
-18.2086 88.2306 -77.9853 87.3957 -31.667 88.8883 -171.843 -5.50676 92.6561 -38.0789 24.8592 0.0116792 49.0453 -3.45066 8.62791 85.7744 54.4718 -7.77735 -179.927 40.5232 91.9661 -33.2622 7.14483 0.859362 64.8103 -1.49951 -0.764804 52.1196 3.26393 12.2151 -1.09224 6.78689 -90.4911 13.3061 -2.40381 -0.668312 1.63734 -2.43088 -0.561824 -20.9116 -2.09178 -1.36011 -0.898961 -2.09176 -1.36011 81.0503 -56.4562 -112.01 21.9703 -4.62843 17.8856 0.312071 -5.80346 -30.8418 -6.85364 -0.491127 2.91505 -101.873 -42.1766 57.9802 -31.393 6.12527 0.873002 2.40124 5.4139 -67.5875 25.6721 2.27673 5.08887 15.8782 1.08451 -0.178651 -5.42006 1.14812 4.96075 
-9.21528 87.291 -70.7069 88.3788 -36.305 88.6499 -174.992 1.18926 90.5868 -54.0459 20.9352 0.830215 30.6667 -15.7583 -3.03553 16.4282 -11.6185 -7.23997 178.806 41.3538 94.9903 -48.7973 5.78353 0.0977176 67.0314 -2.03362 -1.06483 36.7223 0.614171 17.7661 -0.746439 7.07113 -90.5901 12.7242 -1.76447 -0.97048 1.05412 -1.80546 -0.891868 -21.4847 -1.39123 -1.45591 -1.47201 -1.39124 -1.45593 76.9126 -57.1704 -117.435 15.9387 -10.9039 4.78679 -0.0670189 -7.13895 -40.475 -13.1493 -0.865794 2.53474 -105.672 -42.0736 52.127 -30.8748 12.9597 -0.24512 -2.72385 2.48692 -25.813 28.6914 2.44009 4.71761 18.4258 2.72021 1.76252 -5.15259 2.1584 3.95062 
-1.17895 88.0844 -63.7568 88.8612 -42.3925 90.4218 -171.316 20.3918 93.3304 -76.9576 19.1526 -0.207952 34.5677 -13.46 1.99821 29.9895 1.78345 -4.81499 -177.819 35.3997 100.136 -51.639 8.28763 -2.84736 75.0826 -4.94487 -2.39365 26.5561 -1.91054 21.3598 0.037409 7.42152 -90.6629 12.0285 -0.23871 -1.29862 0.357001 -0.295637 -1.28686 -22.1732 0.162584 -1.31033 -2.16059 0.162557 -1.31033 77.4828 -52.8482 -118.381 15.5706 -11.7913 -7.80417 -5.30549 -6.54576 -55.2545 -15.2302 -0.996643 2.59806 -106.231 -42.6364 51.5763 -33.2383 10.2951 8.621 -3.03703 2.90342 -15.5115 21.5389 2.0557 5.66592 20.3346 2.75562 1.8067 -4.7857 2.16086 4.19422 
6.79223 92.3751 -56.3455 86.6188 -41.2376 85.0778 -169.479 39.4026 89.8629 -83.2018 18.6078 -0.192218 37.2299 -12.3849 2.92825 34.0126 5.89851 -5.48936 -178.08 25.0129 96.2854 -43.4266 7.20377 -3.61175 74.4523 -5.19015 -2.59553 32.1781 -0.527303 22.4131 0.461961 7.25556 -90.2113 12.3679 0.817641 -0.515661 0.69708 0.794144 -0.551153 -21.8402 0.93481 -0.246072 -1.82755 0.934822 -0.246076 80.2663 -49.765 -115.585 14.7071 -8.44766 -13.7372 -8.71629 -3.51162 -71.2025 -18.5389 -0.973246 1.06296 -103.656 -41.8856 55.1012 -35.2752 8.16303 18.1884 -0.999742 4.04316 -19.422 16.0534 1.34508 4.50029 17.0033 0.635124 2.73569 -4.47915 -0.0980212 3.88858 
15.933 99.2418 -48.9067 89.6843 -41.2271 82.3228 -165.364 45.302 83.5402 -76.1506 20.5109 -1.87391 42.3697 -9.7194 6.34139 38.471 10.3085 -6.74113 -179.188 11.9139 89.7839 -32.7608 -2.08326 -5.19999 54.2523 0.42007 0.681721 36.7581 0.620351 18.8724 0.885081 7.31553 -89.6319 12.2423 1.9338 0.519981 0.572693 1.9548 0.434338 -21.9709 1.6881 1.07726 -1.95828 1.68811 1.07725 83.4566 -46.8374 -111.874 16.3173 -5.22205 -13.0851 -12.2955 -0.466562 -80.9313 -17.5243 -1.07422 2.19085 -99.9098 -40.4755 60.2975 -37.1753 7.98077 24.4152 -0.708765 5.02708 -21.2237 15.5034 1.22614 3.99177 11.8073 -2.05552 2.88238 -3.33498 -2.6167 2.93216 
25.1691 104.99 -42.721 91.0626 -43.0041 83.2673 -164.509 47.7148 81.8875 -65.6786 17.4522 -3.20898 45.6865 -8.33776 6.30314 44.0426 15.22 -10.0823 -179.792 7.41597 88.3034 -27.8792 -5.14772 -4.9087 33.7378 4.73947 5.50393 13.2966 -4.70476 18.2794 1.06607 7.23001 -89.6944 12.4124 2.26362 0.351692 0.743386 2.2769 0.251665 -21.805 2.0532 1.016 -1.79233 2.05323 1.016 86.7749 -42.669 -108.034 18.7476 -7.31042 -13.6103 -11.5563 2.09849 -88.7572 -17.4578 -1.39953 4.33707 -96.985 -39.0609 64.4188 -41.3121 4.36087 31.6982 -0.187191 0.81119 -23.3929 14.8037 0.918718 2.30544 9.91861 -2.53063 4.36743 -1.74683 -3.38836 1.65138 
34.4855 108.123 -35.9508 91.1022 -43.7148 83.8357 -163.536 46.1517 81.0038 -53.1874 14.9477 -5.27075 48.5705 -6.68878 6.27046 40.0719 12.0642 -4.71627 179.836 4.64587 88.9232 -19.3202 -12.7163 -4.33 36.818 5.22916 5.57127 17.8717 -3.56582 17.6863 1.04873 7.15998 -89.7708 12.554 2.19266 0.2031 0.884861 2.19947 0.106345 -21.6634 2.03019 0.852953 -1.65071 2.03019 0.852951 87.8653 -40.9471 -106.785 18.2076 -7.77794 -13.9881 -12.9008 4.92011 -94.7335 -13.8229 -1.08793 4.11311 -96.1776 -36.5456 64.7281 -46.6252 2.00374 36.2736 -0.505363 -1.14443 -22.4527 14.9844 0.756014 1.17418 11.538 -2.47574 3.72796 -4.15118 -3.27274 1.59534 
43.6965 108.273 -29.0842 90.9564 -45.168 84.1787 -163.74 41.9294 81.3869 -38.841 13.5155 -7.5788 48.1274 -7.31417 4.97851 46.4951 18.2444 -6.10141 178.502 3.52551 89.5333 -9.4344 -9.18701 -2.23937 43.4326 3.75642 3.58313 24.9548 -1.77055 16.0497 1.11999 7.1328 -89.7328 12.6081 2.3523 0.259076 0.939302 2.36143 0.155228 -21.6107 2.16563 0.954379 -1.59804 2.16564 0.954375 86.3849 -41.1692 -109.205 15.5081 -6.11395 -11.8491 -12.4165 5.38803 -99.1238 -15.7008 -1.07436 3.07488 -95.8919 -34.5126 64.3597 -50.1487 2.72619 37.991 -1.16633 1.68243 -20.6536 13.8969 0.890945 2.48584 12.6258 -1.82279 2.85095 -5.7532 -2.47396 1.38102 
52.4176 104.723 -22.3209 92.0615 -46.1061 85.633 -166.325 38.8632 82.5952 -27.9612 13.8362 -7.82229 51.2644 -5.03995 5.9128 49.8164 21.2116 -7.14798 177.652 3.42026 90.4568 -6.01834 4.09217 0.75557 41.9512 2.40318 2.54173 25.099 -1.83381 16.1374 1.1408 7.25287 -89.7074 12.3672 2.40593 0.310674 0.698434 2.41726 0.204422 -21.852 2.20126 1.01972 -1.83935 2.20129 1.01973 86.1435 -42.0192 -109.306 12.7355 -4.51513 -12.4113 -13.0885 6.10196 -102.151 -15.605 -1.22668 4.1999 -96.0217 -33.8847 63.855 -50.397 3.81233 38.0488 -0.832082 6.55002 -19.6687 10.2186 0.64993 2.38309 13.2789 -1.25426 2.56911 -6.24727 -1.8697 1.29118 
